<svg xmlns="http://www.w3.org/2000/svg" version="1.1" xmlns:xlink="http://www.w3.org/1999/xlink" xmlns:svgjs="http://svgjs.dev/svgjs" width="1000" height="272" viewBox="0 0 1000 272"><g transform="matrix(1,0,0,1,-0.6060606060606233,0.08403594086556154)"><svg viewBox="0 0 396 108" data-background-color="#000000" preserveAspectRatio="xMidYMid meet" height="272" width="1000" xmlns="http://www.w3.org/2000/svg" xmlns:xlink="http://www.w3.org/1999/xlink"><g id="tight-bounds" transform="matrix(1,0,0,1,0.2400000000000091,-0.03336721181426583)"><svg viewBox="0 0 395.52 108.06667061508531" height="108.06667061508531" width="395.52"><g><svg viewBox="0 0 611.6636105693898 167.12290132138972" height="108.06667061508531" width="395.52"><g transform="matrix(1,0,0,1,216.14361056938972,31.649450660694853)"><svg viewBox="0 0 395.52000000000004 103.82400000000001" height="103.82400000000001" width="395.52000000000004"><g><svg viewBox="0 0 395.52000000000004 103.82400000000001" height="103.82400000000001" width="395.52000000000004" id="textblock"><g><svg viewBox="0 0 395.52000000000004 103.82400000000001" height="103.82400000000001" width="395.52000000000004"><g transform="matrix(1,0,0,1,0,0)"><svg width="395.52000000000004" viewBox="1.75 -35.849998474121094 183.99000549316406 48.29999923706055" height="103.82400000000001" data-palette-color="#ffffff"><path d="M21.85 0.45L21.85 0.45 9.8-25.75 10.3-25.75 8.6-8.8Q8.35-6.15 8.55-4.73 8.75-3.3 9.58-2.73 10.4-2.15 11.85-2L11.85-2Q12-1.5 12.05-0.85 12.1-0.2 12.1 0.15L12.1 0.15Q10.9 0.05 9.38 0.03 7.85 0 6.75 0L6.75 0Q6.05 0 5.13 0.03 4.2 0.05 3.33 0.08 2.45 0.1 1.75 0.15L1.75 0.15Q1.75-0.2 1.8-0.85 1.85-1.5 2-2L2-2Q3.35-2.15 4.13-2.68 4.9-3.2 5.35-4.7 5.8-6.2 6.05-9.25L6.05-9.25 7.65-27.05Q7.8-28.85 7.53-29.88 7.25-30.9 6.48-31.35 5.7-31.8 4.3-31.8L4.3-31.8Q4.15-32.3 4.1-32.9 4.05-33.5 4.05-33.95L4.05-33.95Q4.55-33.9 5.2-33.88 5.85-33.85 6.55-33.83 7.25-33.8 7.85-33.8L7.85-33.8Q8.5-33.8 9.13-33.83 9.75-33.85 10.38-33.88 11-33.9 11.65-33.95L11.65-33.95 24.75-5 23.65-5 35.05-33.95Q35.65-33.9 36.3-33.88 36.95-33.85 37.63-33.83 38.3-33.8 38.95-33.8L38.95-33.8Q39.6-33.8 40.23-33.83 40.85-33.85 41.48-33.88 42.1-33.9 42.75-33.95L42.75-33.95Q42.75-33.45 42.7-32.9 42.65-32.35 42.5-31.8L42.5-31.8Q40.75-31.8 39.78-30.78 38.8-29.75 39.1-26.75L39.1-26.75 40.9-8.4Q41.15-5.95 41.55-4.6 41.95-3.25 42.68-2.7 43.4-2.15 44.55-2.05L44.55-2.05Q44.7-1.55 44.75-0.95 44.8-0.35 44.8 0.15L44.8 0.15Q44.2 0.1 43.45 0.08 42.7 0.05 41.88 0.03 41.05 0 40.28 0 39.5 0 38.8 0L38.8 0Q37.9 0 36.8 0.03 35.7 0.05 34.63 0.08 33.55 0.1 32.7 0.15L32.7 0.15Q32.7-0.3 32.77-0.9 32.85-1.5 33-2L33-2Q34.6-2.15 35.33-2.65 36.05-3.15 36.18-4.35 36.3-5.55 36.05-7.75L36.05-7.75 34.15-25.95 34.7-25.95 23.9 0.1Q23.45 0.3 22.95 0.38 22.45 0.45 21.85 0.45ZM62.05-6.2L65.5-14.9Q66.8-18.1 66.12-19.28 65.45-20.45 63.25-20.85L63.25-20.85Q63.05-21.4 62.97-21.93 62.9-22.45 62.9-23L62.9-23Q64.05-22.95 65.25-22.93 66.45-22.9 67.85-22.9L67.85-22.9Q69.25-22.9 70.5-22.93 71.75-22.95 72.85-23L72.85-23Q72.85-22.5 72.82-21.95 72.8-21.4 72.55-20.85L72.55-20.85Q71.65-20.65 71.02-20.15 70.4-19.65 69.85-18.6 69.3-17.55 68.5-15.65L68.5-15.65 61.15 1.85Q59.75 5.25 58.62 7.35 57.5 9.45 56.52 10.55 55.55 11.65 54.57 12.05 53.6 12.45 52.45 12.45L52.45 12.45Q50.95 12.45 50.07 12.05 49.2 11.65 48.7 11.3L48.7 11.3Q48.5 10.55 48.55 9.43 48.6 8.3 48.75 7.65L48.75 7.65Q49.6 7.8 50.4 7.88 51.2 7.95 51.95 7.95L51.95 7.95Q53.4 7.95 54.72 7.25 56.05 6.55 57 5L57 5Q57.7 3.95 59.1 0.88 60.5-2.2 62.05-6.2L62.05-6.2ZM61.9-4.25L59.65 1.05Q58.45-1.6 57.12-4.53 55.8-7.45 54.6-10.15 53.4-12.85 52.5-14.7L52.5-14.7Q51.35-17.2 50.57-18.45 49.8-19.7 49.12-20.2 48.45-20.7 47.6-20.85L47.6-20.85Q47.45-21.3 47.37-21.85 47.3-22.4 47.3-23L47.3-23Q48.75-22.95 50.2-22.93 51.65-22.9 52.95-22.9L52.95-22.9Q54.25-22.9 56.15-22.93 58.05-22.95 59.6-23L59.6-23Q59.6-22.35 59.52-21.83 59.45-21.3 59.25-20.85L59.25-20.85Q56.55-20.4 56.15-19.28 55.75-18.15 57.1-15.35L57.1-15.35Q57.8-13.9 58.7-11.88 59.6-9.85 60.45-7.83 61.3-5.8 61.9-4.25L61.9-4.25ZM76.45-33.95L76.45-33.95Q77.45-33.9 78.87-33.85 80.3-33.8 81.65-33.8L81.65-33.8Q82.85-33.8 84.05-33.83 85.25-33.85 86.45-33.88 87.65-33.9 88.8-33.9L88.8-33.9Q91.7-33.9 94.1-33.3 96.5-32.7 97.97-31.13 99.45-29.55 99.45-26.6L99.45-26.6Q99.45-23.4 97.5-21.13 95.55-18.85 92.2-18.35L92.2-18.35Q94.85-18.2 97.07-17.38 99.3-16.55 100.65-14.75 102-12.95 102-9.85L102-9.85Q102-7.15 100.77-4.9 99.55-2.65 96.9-1.33 94.25 0 90 0L90 0Q88.6 0 86.67 0 84.75 0 82.75 0.03 80.75 0.05 79.05 0.08 77.35 0.1 76.4 0.15L76.4 0.15Q76.4-0.55 76.45-1.07 76.5-1.6 76.65-2L76.65-2Q78-2.1 78.75-2.5 79.5-2.9 79.82-3.93 80.15-4.95 80.15-6.9L80.15-6.9 80.15-27.45Q80.15-29.15 79.85-30.05 79.55-30.95 78.8-31.35 78.05-31.75 76.7-31.8L76.7-31.8Q76.55-32.2 76.5-32.77 76.45-33.35 76.45-33.95ZM84.15-31.3L84.85-32.05 84.85-6.9Q84.85-4.85 85.22-3.83 85.6-2.8 86.62-2.48 87.65-2.15 89.5-2.15L89.5-2.15Q93.2-2.15 94.92-4.03 96.65-5.9 96.65-9.15L96.65-9.15Q96.65-11.5 95.7-12.98 94.75-14.45 93.17-15.23 91.6-16 89.72-16.3 87.85-16.6 86-16.6L86-16.6 84.25-16.6 84.25-18.75 86.4-18.75Q89.65-18.75 91.35-19.65 93.05-20.55 93.7-22.03 94.35-23.5 94.35-25.1L94.35-25.1Q94.35-27.7 93.17-29.13 92-30.55 90.27-31.13 88.55-31.7 86.9-31.7L86.9-31.7Q86.25-31.7 85.62-31.63 85-31.55 84.15-31.3L84.15-31.3ZM121.89 0.45L121.89 0.45Q121.34 0.2 121.02-0.45 120.69-1.1 120.69-2.5L120.69-2.5Q120.69-2.95 120.74-3.58 120.79-4.2 120.94-4.7L120.94-4.7 121.04-4.7Q120.89-3.9 120.37-2.98 119.84-2.05 118.99-1.35L118.99-1.35Q118.14-0.6 116.84-0.13 115.54 0.35 113.69 0.35L113.69 0.35Q110.54 0.35 108.89-1.07 107.24-2.5 107.24-4.95L107.24-4.95Q107.24-6.9 108.17-8.28 109.09-9.65 110.57-10.58 112.04-11.5 113.77-12.05 115.49-12.6 117.14-12.9 118.79-13.2 120.04-13.4L120.04-13.4Q120.04-15.45 119.97-16.6 119.89-17.75 119.67-18.43 119.44-19.1 118.99-19.6L118.99-19.6Q118.39-20.35 117.62-20.73 116.84-21.1 115.89-21.1L115.89-21.1Q114.24-21.1 113.29-20.08 112.34-19.05 111.94-17.7 111.54-16.35 111.49-15.3L111.49-15.3Q110.94-15.3 110.12-15.38 109.29-15.45 108.89-15.65L108.89-15.65Q108.99-16.9 108.94-18.45 108.89-20 108.64-21.1L108.64-21.1Q110.69-22.15 112.97-22.75 115.24-23.35 117.14-23.35L117.14-23.35Q118.99-23.35 120.32-22.83 121.64-22.3 122.44-21.45L122.44-21.45Q123.74-20.2 124.14-18.18 124.54-16.15 124.54-12.8L124.54-12.8 124.54-7.3Q124.54-5.9 124.77-5.08 124.99-4.25 125.64-3.88 126.29-3.5 127.64-3.4L127.64-3.4Q127.64-2.9 127.59-2.27 127.54-1.65 127.34-1.1L127.34-1.1Q126.09-1.05 124.57-0.63 123.04-0.2 121.89 0.45ZM115.09-2.4L115.09-2.4Q116.19-2.4 117.34-3.13 118.49-3.85 119.27-5.4 120.04-6.95 120.04-9.45L120.04-9.45 120.04-11.35Q118.79-11.2 117.39-10.93 115.99-10.65 114.79-10.1 113.59-9.55 112.84-8.58 112.09-7.6 112.09-5.95L112.09-5.95Q112.09-4.1 112.99-3.25 113.89-2.4 115.09-2.4ZM139.69-21.15L135.19-10.7 135.19-16.25Q135.19-17.45 134.94-18.2 134.69-18.95 133.89-19.35 133.09-19.75 131.44-19.8L131.44-19.8Q131.44-20.35 131.54-20.8 131.64-21.25 131.89-21.65L131.89-21.65Q133.44-21.75 135.44-22.25 137.44-22.75 138.59-23.35L138.59-23.35Q139.04-23.2 139.37-22.73 139.69-22.25 139.69-21.15L139.69-21.15ZM154.49-14.95L154.49-6.35Q154.49-3.75 155.22-2.88 155.94-2 157.44-2L157.44-2Q157.59-1.55 157.64-1.05 157.69-0.55 157.69 0.15L157.69 0.15Q156.59 0.05 155.19 0.03 153.79 0 152.24 0L152.24 0Q151.24 0 150.14 0.03 149.04 0.05 148.07 0.08 147.09 0.1 146.29 0.15L146.29 0.15Q146.29-0.55 146.34-1.07 146.39-1.6 146.54-2L146.54-2Q148.34-2 149.17-2.93 149.99-3.85 149.99-6.35L149.99-6.35 149.99-13.95Q149.99-17.5 148.69-18.78 147.39-20.05 145.34-20.05L145.34-20.05Q144.04-20.05 142.74-19.23 141.44-18.4 140.57-16.57 139.69-14.75 139.69-11.7L139.69-11.7 139.69-6.35Q139.69-3.85 140.44-2.93 141.19-2 143.14-2L143.14-2Q143.29-1.55 143.34-1.05 143.39-0.55 143.39 0.15L143.39 0.15Q142.69 0.1 141.69 0.08 140.69 0.05 139.59 0.03 138.49 0 137.44 0L137.44 0Q136.44 0 135.34 0.03 134.24 0.05 133.24 0.08 132.24 0.1 131.49 0.15L131.49 0.15Q131.49-0.55 131.54-1.07 131.59-1.6 131.74-2L131.74-2Q133.69-2 134.44-2.93 135.19-3.85 135.19-6.35L135.19-6.35 135.19-16.25 139.69-21.15Q139.69-20.55 139.64-19.8 139.59-19.05 139.34-18.2L139.34-18.2Q139.49-18.45 139.64-18.78 139.79-19.1 140.09-19.5L140.09-19.5Q140.94-20.65 142.82-21.88 144.69-23.1 147.34-23.1L147.34-23.1Q149.24-23.1 150.87-22.33 152.49-21.55 153.49-19.78 154.49-18 154.49-14.95L154.49-14.95ZM161.29 0.15L161.29 0.15Q161.29-0.35 161.34-0.93 161.39-1.5 161.54-2L161.54-2Q163.54-2 164.26-2.93 164.99-3.85 164.99-6.35L164.99-6.35 164.99-28.75Q164.99-29.95 164.76-30.73 164.54-31.5 163.74-31.9 162.94-32.3 161.24-32.3L161.24-32.3Q161.24-32.85 161.34-33.3 161.44-33.75 161.69-34.15L161.69-34.15Q162.44-34.15 163.81-34.4 165.19-34.65 166.49-35.05 167.79-35.45 168.39-35.85L168.39-35.85Q168.84-35.7 169.16-35.25 169.49-34.8 169.49-33.85L169.49-33.85 169.49-6.35Q169.49-3.85 170.16-2.93 170.84-2 172.44-2L172.44-2Q172.59-1.5 172.64-0.85 172.69-0.2 172.69 0.15L172.69 0.15Q171.39 0.05 169.94 0.03 168.49 0 167.04 0L167.04 0Q166.09 0 165.06 0.03 164.04 0.05 163.09 0.08 162.14 0.1 161.29 0.15ZM179.09 0.45L179.09 0.45Q177.94-1.3 176.09-3.65 174.24-6 172.19-8.35 170.14-10.7 168.29-12.45L168.29-12.45 168.24-11.65 173.19-16.15Q174.94-17.7 175.66-18.68 176.39-19.65 176.39-20.15L176.39-20.15Q176.39-20.55 176.01-20.75 175.64-20.95 174.94-20.95L174.94-20.95Q174.79-21.45 174.71-21.95 174.64-22.45 174.64-23L174.64-23Q175.74-22.95 176.66-22.93 177.59-22.9 178.39-22.9 179.19-22.9 179.84-22.9L179.84-22.9Q180.69-22.9 181.94-22.93 183.19-22.95 184.54-23L184.54-23Q184.54-22.5 184.46-21.93 184.39-21.35 184.19-20.9L184.19-20.9Q183.24-20.9 182.31-20.6 181.39-20.3 180.36-19.65 179.34-19 178.09-17.85L178.09-17.85 172.59-12.85 172.49-14.45Q174.24-12.65 176.09-10.58 177.94-8.5 180.54-5.3L180.54-5.3Q181.54-4.1 182.26-3.45 182.99-2.8 183.79-2.53 184.59-2.25 185.74-2.15L185.74-2.15Q185.74-1.45 185.69-0.93 185.64-0.4 185.49 0L185.49 0Q184.29 0 183.24 0.05 182.19 0.1 181.19 0.18 180.19 0.25 179.09 0.45Z" opacity="1" transform="matrix(1,0,0,1,0,0)" fill="#ffffff" class="undefined-text-0" data-fill-palette-color="primary" id="text-0"></path></svg></g></svg></g></svg></g></svg></g><g><svg viewBox="0 0 167.12290132138972 167.12290132138972" height="167.12290132138972" width="167.12290132138972"><g><svg></svg></g><g id="icon-0"><svg viewBox="0 0 167.12290132138972 167.12290132138972" height="167.12290132138972" width="167.12290132138972"><g><path d="M0 83.561c0-46.15 37.412-83.561 83.561-83.561 46.15 0 83.561 37.412 83.562 83.561 0 46.15-37.412 83.561-83.562 83.562-46.15 0-83.561-37.412-83.561-83.562zM83.561 157.76c40.979 0 74.198-33.22 74.199-74.199 0-40.979-33.22-74.198-74.199-74.198-40.979 0-74.198 33.22-74.198 74.198 0 40.979 33.22 74.198 74.198 74.199z" data-fill-palette-color="accent" fill="#ffffff" stroke="transparent"></path></g><g transform="matrix(1,0,0,1,38.30267525556901,41.40261624253455)"><svg viewBox="0 0 90.5175508102517 84.31766883632062" height="84.31766883632062" width="90.5175508102517"><g><svg xmlns="http://www.w3.org/2000/svg" xmlns:xlink="http://www.w3.org/1999/xlink" version="1.1" x="0" y="0" viewBox="2.878000259399414 9.209001541137695 93.60000610351562 87.18899536132812" enable-background="new 0 0 100 100" xml:space="preserve" height="84.31766883632062" width="90.5175508102517" class="icon-s-0" data-fill-palette-color="accent" id="s-0"><g fill="#ffffff" data-fill-palette-color="accent"><path d="M52.193 21.983c0.553 0 1-0.448 1-1v-1.108l-2.142-1.183c-0.855-0.474-1.894-0.474-2.75 0l-7.138 3.943v0.271h-0.492l-1.82 1.005v2.273c0 0.552 0.447 1 1 1h1.493c0.233 2.293 0.806 4.107 2.458 5.758 1.881 1.882 4.312 2.877 7.029 2.877 5.086 0 8.786-3.172 9.655-8.277 0.05-0.291-0.031-0.588-0.221-0.813-0.19-0.225-0.47-0.355-0.765-0.355h-3.706c-0.464 0-0.866 0.319-0.974 0.77-0.301 1.274-1.22 3.412-3.99 3.412-1.114 0-2.1-0.412-2.836-1.176-0.479-0.517-0.761-1.018-0.924-2.195h5.12c0.553 0 1-0.448 1-1v-2.278c0-0.552-0.447-1-1-1h-5.357v-0.924H52.193z" fill="#ffffff" data-fill-palette-color="accent"></path><path d="M94.296 42.581L55.193 20.98v0.003c0 0.53-0.139 1.029-0.381 1.462 0.242 0.433 0.381 0.932 0.381 1.462v0.528c0.195-0.04 0.397-0.061 0.604-0.061h3.706c0.885 0 1.72 0.388 2.295 1.067 0.57 0.677 0.812 1.566 0.662 2.436-1.028 6.04-5.592 9.942-11.627 9.942-3.26 0-6.18-1.198-8.443-3.462-1.676-1.674-2.408-3.481-2.766-5.182-1.548-0.117-2.771-1.414-2.771-2.991v-1.168L4.903 42.667c-1.135 0.627-1.702 1.942-1.378 3.199C3.849 47.123 4.981 48 6.278 48h86.798c0.004 0 0.008 0 0.012 0 1.57 0 2.844-1.272 2.844-2.845C95.932 44.018 95.262 43.035 94.296 42.581z" fill="#ffffff" data-fill-palette-color="accent"></path></g><path d="M94.982 88.495h-2.432v-3.867c0-0.825-0.67-1.495-1.494-1.495h-4.182V53.814c0-0.739-0.6-1.339-1.339-1.339h-5.468c-0.74 0-1.34 0.6-1.34 1.339v29.318H67.82V54.065c0-0.738-0.6-1.339-1.339-1.339h-5.468c-0.74 0-1.34 0.601-1.34 1.339v29.067H39.68V53.814c0-0.739-0.6-1.339-1.339-1.339h-5.468c-0.739 0-1.338 0.6-1.338 1.339v29.318H20.626V54.065c0-0.738-0.6-1.339-1.339-1.339h-5.468c-0.739 0-1.338 0.601-1.338 1.339v29.067H8.298c-0.825 0-1.494 0.67-1.494 1.495v3.867H4.372c-0.825 0-1.494 0.67-1.494 1.495v4.916c0 0.825 0.668 1.493 1.494 1.493h90.611c0.826 0 1.495-0.668 1.495-1.493V89.99C96.478 89.165 95.809 88.495 94.982 88.495z" fill="#ffffff" data-fill-palette-color="accent"></path><path d="M60.268 26.73c-0.19-0.225-0.47-0.355-0.765-0.355h-3.706c-0.464 0-0.866 0.319-0.974 0.77-0.301 1.274-1.22 3.412-3.99 3.412-1.114 0-2.1-0.412-2.836-1.176-0.479-0.517-0.761-1.018-0.924-2.195h5.12c0.553 0 1-0.448 1-1v-2.278c0-0.552-0.447-1-1-1h-5.357v-0.924h5.357c0.553 0 1-0.448 1-1v-2.277c0-0.552-0.447-1-1-1H47.08c0.163-1.094 0.439-1.564 0.904-2.047 0.748-0.777 1.733-1.188 2.849-1.188 2.741 0 3.655 2.137 3.956 3.412 0.107 0.451 0.51 0.77 0.974 0.77h3.74c0.295 0 0.574-0.13 0.765-0.355 0.189-0.225 0.271-0.522 0.221-0.813-0.869-5.105-4.569-8.277-9.655-8.277-2.717 0-5.147 0.995-7.029 2.876-1.633 1.633-2.217 3.454-2.454 5.623h-1.497c-0.553 0-1 0.448-1 1v2.277c0 0.552 0.447 1 1 1h1.312v0.924h-1.312c-0.553 0-1 0.448-1 1v2.278c0 0.552 0.447 1 1 1h1.493c0.233 2.293 0.806 4.107 2.458 5.758 1.881 1.882 4.312 2.877 7.029 2.877 5.086 0 8.786-3.172 9.655-8.277C60.538 27.252 60.457 26.955 60.268 26.73z" fill="#ffffff" data-fill-palette-color="accent"></path><path d="M60.268 26.73c-0.19-0.225-0.47-0.355-0.765-0.355h-3.706c-0.464 0-0.866 0.319-0.974 0.77-0.301 1.274-1.22 3.412-3.99 3.412-1.114 0-2.1-0.412-2.836-1.176-0.479-0.517-0.761-1.018-0.924-2.195h5.12c0.553 0 1-0.448 1-1v-2.278c0-0.552-0.447-1-1-1h-5.357v-0.924h5.357c0.553 0 1-0.448 1-1v-2.277c0-0.552-0.447-1-1-1H47.08c0.163-1.094 0.439-1.564 0.904-2.047 0.748-0.777 1.733-1.188 2.849-1.188 2.741 0 3.655 2.137 3.956 3.412 0.107 0.451 0.51 0.77 0.974 0.77h3.74c0.295 0 0.574-0.13 0.765-0.355 0.189-0.225 0.271-0.522 0.221-0.813-0.869-5.105-4.569-8.277-9.655-8.277-2.717 0-5.147 0.995-7.029 2.876-1.633 1.633-2.217 3.454-2.454 5.623h-1.497c-0.553 0-1 0.448-1 1v2.277c0 0.552 0.447 1 1 1h1.312v0.924h-1.312c-0.553 0-1 0.448-1 1v2.278c0 0.552 0.447 1 1 1h1.493c0.233 2.293 0.806 4.107 2.458 5.758 1.881 1.882 4.312 2.877 7.029 2.877 5.086 0 8.786-3.172 9.655-8.277C60.538 27.252 60.457 26.955 60.268 26.73z" fill="#ffffff" data-fill-palette-color="accent"></path></svg></g></svg></g></svg></g></svg></g></svg></g><defs></defs></svg><rect width="395.52" height="108.06667061508531" fill="none" stroke="none" visibility="hidden"></rect></g></svg></g></svg>